<?xml version="1.0" encoding="UTF-8" standalone="no"?>
<!-- Generator: Adobe Illustrator 16.0.0, SVG Export Plug-In . SVG Version: 6.00 Build 0)  -->

<svg
   xmlns:ns0="&amp;#38;ns_sfw;"
   xmlns:dc="http://purl.org/dc/elements/1.1/"
   xmlns:cc="http://creativecommons.org/ns#"
   xmlns:rdf="http://www.w3.org/1999/02/22-rdf-syntax-ns#"
   xmlns:svg="http://www.w3.org/2000/svg"
   xmlns="http://www.w3.org/2000/svg"
   xmlns:sodipodi="http://sodipodi.sourceforge.net/DTD/sodipodi-0.dtd"
   xmlns:inkscape="http://www.inkscape.org/namespaces/inkscape"
   version="1.1"
   id="Layer_1"
   x="0px"
   y="0px"
   width="64px"
   height="64px"
   viewBox="438.625 231 83.486 99.151"
   enable-background="new 438.625 231 83.486 99.151"
   xml:space="preserve"
   sodipodi:docname="logo.svg"
   inkscape:version="0.92.1 r"><defs
     id="defs226" /><sodipodi:namedview
     pagecolor="#ffffff"
     bordercolor="#666666"
     borderopacity="1"
     objecttolerance="10"
     gridtolerance="10"
     guidetolerance="10"
     inkscape:pageopacity="0"
     inkscape:pageshadow="2"
     inkscape:window-width="1680"
     inkscape:window-height="959"
     id="namedview224"
     showgrid="false"
     inkscape:zoom="24.25"
     inkscape:cx="32"
     inkscape:cy="32"
     inkscape:window-x="0"
     inkscape:window-y="22"
     inkscape:window-maximized="0"
     inkscape:current-layer="Layer_1" /><metadata
     id="metadata209"><ns0:sfw><ns0:slices /><ns0:sliceSourceBounds
         x="358.125"
         y="250.349"
         width="83.486"
         height="99.151"
         bottomLeftOrigin="true" /></ns0:sfw><rdf:RDF><cc:Work
         rdf:about=""><dc:format>image/svg+xml</dc:format><dc:type
           rdf:resource="http://purl.org/dc/dcmitype/StillImage" /></cc:Work></rdf:RDF></metadata><g
     id="g221"
     style="fill:#000000"
     transform="matrix(1.1902024,0,0,1.1901738,-91.474267,-44.058058)"><path
       d="m 482.53,231.052 c -0.083,-0.017 -0.164,-0.037 -0.249,-0.052 l 0.008,0.042 c -0.607,-0.026 -1.217,-0.042 -1.83,-0.042 -23.005,0 -41.654,18.649 -41.654,41.654 0,23.004 18.649,41.654 41.654,41.654 23.005,0 41.652,-18.649 41.652,-41.654 0,-22.31 -17.539,-40.523 -39.581,-41.602 z m -40.81,41.602 c 0,-21.394 17.345,-38.739 38.739,-38.739 0.836,0 1.666,0.03 2.488,0.082 20.926,4.39 20.223,34.532 -3.16,35.683 -22.021,1.572 -27.604,23.697 -20.143,35.65 -10.776,-6.879 -17.924,-18.941 -17.924,-32.676 z m 38.739,38.738 c -5.103,0 -9.974,-0.986 -14.435,-2.78 -13.627,-13.069 -4.796,-35.286 13.906,-36.003 20.74,-0.198 27.564,-24.636 14.15,-36.225 14.671,5.514 25.114,19.673 25.114,36.272 0.002,21.392 -17.342,38.736 -38.735,38.736 z"
       id="path211"
       style="fill:#000000"
       inkscape:connector-curvature="0" /><g
       id="g215"
       style="fill:#000000"><path
         d="m 474.274,258.823 v -13.72 c 0,-0.602 0.216,-1.12 0.652,-1.556 0.438,-0.435 0.956,-0.655 1.558,-0.655 h 7.151 c 0.593,0 1.104,0.22 1.535,0.655 0.435,0.436 0.648,0.954 0.648,1.556 v 13.72 c 0,0.609 -0.215,1.131 -0.648,1.562 -0.432,0.433 -0.951,0.649 -1.561,0.649 h -7.127 c -0.619,0 -1.144,-0.216 -1.57,-0.649 -0.425,-0.431 -0.638,-0.952 -0.638,-1.562 z m 9.281,-0.082 v -13.529 h -6.987 v 13.529 z"
         id="path213"
         style="fill:#000000"
         inkscape:connector-curvature="0" /></g><g
       id="g219"
       style="fill:#000000"><path
         d="m 475.831,299.557 h 3.522 v -13.524 h -3.465 c -0.321,0 -0.59,-0.111 -0.812,-0.337 -0.226,-0.223 -0.334,-0.493 -0.334,-0.812 0,-0.317 0.108,-0.59 0.334,-0.812 0.224,-0.225 0.491,-0.334 0.812,-0.334 h 5.76 v 15.818 h 2.294 v -4.774 c 0,-0.312 0.109,-0.58 0.336,-0.808 0.221,-0.228 0.489,-0.342 0.811,-0.342 0.318,0 0.59,0.113 0.813,0.333 0.221,0.228 0.333,0.495 0.333,0.815 v 5.922 c 0,0.318 -0.112,0.592 -0.333,0.812 -0.225,0.223 -0.495,0.334 -0.813,0.334 h -9.257 c -0.316,0 -0.586,-0.115 -0.81,-0.348 -0.224,-0.23 -0.334,-0.509 -0.334,-0.828 0,-0.308 0.11,-0.57 0.334,-0.789 0.222,-0.216 0.493,-0.326 0.809,-0.326 z"
         id="path217"
         style="fill:#000000"
         inkscape:connector-curvature="0" /></g></g></svg>