<?xml version="1.0" encoding="utf-8"?>
<!-- Generator: Adobe Illustrator 16.0.0, SVG Export Plug-In . SVG Version: 6.00 Build 0)  -->
<!DOCTYPE svg PUBLIC "-//W3C//DTD SVG 1.1//EN" "http://www.w3.org/Graphics/SVG/1.1/DTD/svg11.dtd" [
	<!ENTITY ns_extend "http://ns.adobe.com/Extensibility/1.0/">
	<!ENTITY ns_ai "http://ns.adobe.com/AdobeIllustrator/10.0/">
	<!ENTITY ns_graphs "http://ns.adobe.com/Graphs/1.0/">
	<!ENTITY ns_vars "http://ns.adobe.com/Variables/1.0/">
	<!ENTITY ns_imrep "http://ns.adobe.com/ImageReplacement/1.0/">
	<!ENTITY ns_sfw "http://ns.adobe.com/SaveForWeb/1.0/">
	<!ENTITY ns_custom "http://ns.adobe.com/GenericCustomNamespace/1.0/">
	<!ENTITY ns_adobe_xpath "http://ns.adobe.com/XPath/1.0/">
]>
<svg version="1.1" id="Layer_1" xmlns:x="&ns_extend;" xmlns:i="&ns_ai;" xmlns:graph="&ns_graphs;"
	 xmlns="http://www.w3.org/2000/svg" xmlns:xlink="http://www.w3.org/1999/xlink" x="0px" y="0px" width="64px"
	 height="64px" viewBox="438.625 231 83.486 99.151" enable-background="new 438.625 231 83.486 99.151" xml:space="preserve">
<metadata>
	<sfw  xmlns="&ns_sfw;">
		<slices></slices>
		<sliceSourceBounds  x="358.125" y="250.349" width="83.486" height="99.151" bottomLeftOrigin="true"></sliceSourceBounds>
	</sfw>
</metadata>
<g>
	<path fill="#fff" d="M482.53,231.052c-0.083-0.017-0.164-0.037-0.249-0.052l0.008,0.042c-0.607-0.026-1.217-0.042-1.83-0.042
		c-23.005,0-41.654,18.649-41.654,41.654c0,23.004,18.649,41.654,41.654,41.654s41.652-18.649,41.652-41.654
		C522.111,250.344,504.572,232.131,482.53,231.052z M441.72,272.654c0-21.394,17.345-38.739,38.739-38.739
		c0.836,0,1.666,0.03,2.488,0.082c20.926,4.39,20.223,34.532-3.16,35.683c-22.021,1.572-27.604,23.697-20.143,35.65
		C448.868,298.451,441.72,286.389,441.72,272.654z M480.459,311.392c-5.103,0-9.974-0.986-14.435-2.78
		c-13.627-13.069-4.796-35.286,13.906-36.003c20.74-0.198,27.564-24.636,14.15-36.225c14.671,5.514,25.114,19.673,25.114,36.272
		C519.196,294.048,501.852,311.392,480.459,311.392z"/>
	<g>
		<path fill="#fff" d="M474.274,258.823v-13.72c0-0.602,0.216-1.12,0.652-1.556c0.438-0.435,0.956-0.655,1.558-0.655h7.151
			c0.593,0,1.104,0.22,1.535,0.655c0.435,0.436,0.648,0.954,0.648,1.556v13.72c0,0.609-0.215,1.131-0.648,1.562
			c-0.432,0.433-0.951,0.649-1.561,0.649h-7.127c-0.619,0-1.144-0.216-1.57-0.649C474.487,259.954,474.274,259.433,474.274,258.823z
			 M483.555,258.741v-13.529h-6.987v13.529H483.555z"/>
	</g>
	<g>
		<path fill="#fff" d="M475.831,299.557h3.522v-13.524h-3.465c-0.321,0-0.59-0.111-0.812-0.337
			c-0.226-0.223-0.334-0.493-0.334-0.812c0-0.317,0.108-0.59,0.334-0.812c0.224-0.225,0.491-0.334,0.812-0.334h5.76v15.818h2.294
			v-4.774c0-0.312,0.109-0.58,0.336-0.808c0.221-0.228,0.489-0.342,0.811-0.342c0.318,0,0.59,0.113,0.813,0.333
			c0.221,0.228,0.333,0.495,0.333,0.815v5.922c0,0.318-0.112,0.592-0.333,0.812c-0.225,0.223-0.495,0.334-0.813,0.334h-9.257
			c-0.316,0-0.586-0.115-0.81-0.348c-0.224-0.23-0.334-0.509-0.334-0.828c0-0.308,0.11-0.57,0.334-0.789
			C475.244,299.667,475.515,299.557,475.831,299.557z"/>
	</g>
</g>
</svg>
